<?xml version="1.0" encoding="utf-8"?>
<!-- Generator: Adobe Illustrator 16.0.0, SVG Export Plug-In . SVG Version: 6.00 Build 0)  -->
<svg version="1.2" baseProfile="tiny" id="Final" xmlns="http://www.w3.org/2000/svg" xmlns:xlink="http://www.w3.org/1999/xlink"
	 x="0px" y="0px" width="1096.023px" height="192.67px" viewBox="0 0 1096.023 192.67" xml:space="preserve">
<g id="WaterC__mpass_Text" display="none">
	<path display="inline" fill="#3B6B5D" d="M45.821,57.65c-0.579-2.46-2.17-3.183-4.629-3.183h-2.749V38.409H50.74
		c7.233,0,11.14,1.736,12.731,8.391l14.033,61.195c1.302,5.786,1.736,10.85,1.736,10.85h0.289c0,0,0.579-4.918,2.17-10.85
		l18.662-69.297h16.058l17.649,69.297c1.592,5.932,2.025,10.85,2.025,10.85h0.29c0,0,0.434-5.063,1.736-10.85L152.297,46.8
		c1.447-6.654,5.353-8.391,12.586-8.391h12.441v16.059h-2.749c-2.604,0-4.051,0.723-4.629,3.183l-21.411,83.474h-21.845
		l-15.624-58.157c-1.736-6.51-2.604-12.73-2.604-12.73h-0.29c0,0-0.868,6.076-2.749,12.73l-16.348,58.157h-21.99L45.821,57.65z"/>
	<path display="inline" fill="#3B6B5D" d="M219.552,94.83h2.315v-0.579c0-10.561-4.195-14.467-13.599-14.467
		c-3.328,0-9.838,0.868-9.838,4.919v3.906H181.36v-7.813c0-13.743,19.386-15.189,27.053-15.189
		c24.594,0,31.827,12.875,31.827,29.367v27.487c0,2.025,1.157,3.183,3.183,3.183h5.787v15.479h-16.492
		c-6.799,0-9.403-3.762-9.403-8.102c0-1.881,0.145-3.183,0.145-3.183h-0.289c0,0-5.642,13.021-22.279,13.021
		c-13.165,0-25.172-8.246-25.172-23.003C175.718,96.711,207.545,94.83,219.552,94.83z M205.375,128.538
		c9.837,0,16.782-10.416,16.782-19.386v-1.736h-3.183c-9.548,0-24.738,1.303-24.738,11.573
		C194.235,123.908,197.852,128.538,205.375,128.538z"/>
	<path display="inline" fill="#3B6B5D" d="M259.684,81.954h-9.548V67.343h9.982V47.234h17.939v20.108h16.781v14.611h-16.781v29.802
		c0,12.152,9.548,13.889,14.611,13.889c2.025,0,3.328-0.289,3.328-0.289v16.058c0,0-2.315,0.435-5.642,0.435
		c-10.271,0-30.67-3.038-30.67-27.776V81.954z"/>
	<path display="inline" fill="#3B6B5D" d="M337.602,65.607c21.122,0,32.695,15.479,32.695,35.01c0,2.17-0.434,6.799-0.434,6.799
		h-50.923c1.446,13.021,10.995,19.82,22.134,19.82c11.863,0,20.688-8.247,20.688-8.247l7.667,12.731c0,0-11.284,11.14-29.657,11.14
		c-24.449,0-39.639-17.649-39.639-38.627C300.132,81.521,315.467,65.607,337.602,65.607z M351.49,94.686
		c-0.29-8.825-6.366-14.901-13.888-14.901c-9.403,0-16.058,5.643-18.083,14.901H351.49z"/>
	<path display="inline" fill="#3B6B5D" d="M385.095,86.15c0-2.171-1.157-3.184-3.183-3.184h-5.787V67.343h16.782
		c6.51,0,9.837,2.749,9.837,8.97v4.34c0,2.749-0.29,4.63-0.29,4.63h0.29c3.327-10.562,12.152-18.952,23.436-18.952
		c1.591,0,3.328,0.29,3.328,0.29v18.083c0,0-1.881-0.289-4.485-0.289c-7.812,0-16.782,4.484-20.109,15.479
		c-1.013,3.616-1.591,7.667-1.591,12.008v29.223h-18.229V86.15z"/>
	<path display="inline" fill="#3B6B5D" d="M487.417,36.673c13.165,0,38.916,5.498,38.916,23.003v11.429h-17.215v-5.787
		c0-7.522-12.297-10.994-21.266-10.994c-18.373,0-32.84,13.164-32.84,34.575c0,20.109,14.756,36.313,33.418,36.313
		c19.385,0,31.104-13.6,31.104-13.6l9.982,13.6c0,0-14.901,17.649-41.375,17.649c-31.393,0-52.804-23.581-52.804-53.962
		C435.336,59.241,457.616,36.673,487.417,36.673z"/>
	<path display="inline" fill="#3B6B5D" d="M637.439,86.15c0-2.171-1.157-3.184-3.183-3.184h-5.787V67.343h16.926
		c6.511,0,9.693,3.038,9.693,8.246v2.17c0,1.592-0.145,3.183-0.145,3.183h0.289c3.472-7.233,12.297-15.334,23.87-15.334
		c11.14,0,18.373,5.208,21.556,15.189h0.289c3.906-7.956,13.454-15.189,25.173-15.189c15.335,0,24.159,8.68,24.159,28.065v28.789
		c0,2.025,1.157,3.183,3.183,3.183h5.643v15.479h-17.36c-6.944,0-9.837-2.894-9.837-9.838V97.145
		c0-8.391-1.592-14.756-10.127-14.756c-9.114,0-15.625,7.667-17.65,16.926c-0.867,2.894-1.157,5.932-1.157,9.404v32.405h-18.372
		V97.145c0-7.956-1.158-14.756-9.982-14.756c-9.259,0-15.479,7.667-17.794,17.07c-0.724,2.894-1.158,5.932-1.158,9.26v32.405
		h-18.228V86.15z"/>
	<path display="inline" fill="#3B6B5D" d="M770.939,86.15c0-2.171-1.157-3.184-3.183-3.184h-5.787V67.343h16.348
		c6.799,0,9.259,3.038,9.259,7.089c0,1.736,0,2.894,0,2.894h0.289c0,0,6.221-11.718,23.437-11.718
		c19.964,0,32.84,15.769,32.84,38.626c0,23.437-14.467,38.627-33.853,38.627c-14.611,0-21.122-9.693-21.122-9.693h-0.289
		c0,0,0.289,2.604,0.289,6.365v30.525h-18.228V86.15z M806.961,127.381c10.127,0,18.662-8.246,18.662-22.858
		c0-14.032-7.522-23.146-18.373-23.146c-9.548,0-18.518,6.944-18.518,23.292C788.733,116.097,794.809,127.381,806.961,127.381z"/>
	<path display="inline" fill="#3B6B5D" d="M894.976,94.83h2.314v-0.579c0-10.561-4.195-14.467-13.599-14.467
		c-3.327,0-9.837,0.868-9.837,4.919v3.906h-17.071v-7.813c0-13.743,19.386-15.189,27.053-15.189
		c24.594,0,31.827,12.875,31.827,29.367v27.487c0,2.025,1.157,3.183,3.183,3.183h5.787v15.479h-16.492
		c-6.8,0-9.403-3.762-9.403-8.102c0-1.881,0.145-3.183,0.145-3.183h-0.289c0,0-5.643,13.021-22.279,13.021
		c-13.165,0-25.172-8.246-25.172-23.003C851.142,96.711,882.969,94.83,894.976,94.83z M880.798,128.538
		c9.838,0,16.782-10.416,16.782-19.386v-1.736h-3.183c-9.549,0-24.738,1.303-24.738,11.573
		C869.66,123.908,873.276,128.538,880.798,128.538z"/>
	<path display="inline" fill="#3B6B5D" d="M938.869,117.688c0,0,9.403,10.851,21.989,10.851c5.643,0,9.982-2.314,9.982-7.233
		c0-10.416-38.916-10.271-38.916-34.142c0-14.757,13.31-21.556,28.645-21.556c9.982,0,25.896,3.327,25.896,15.334v7.668h-16.203
		v-3.617c0-3.472-5.208-5.208-9.259-5.208c-6.51,0-10.994,2.315-10.994,6.655c0,11.573,39.205,9.259,39.205,33.853
		c0,13.888-12.297,22.568-28.355,22.568c-20.253,0-30.669-13.165-30.669-13.165L938.869,117.688z"/>
	<path display="inline" fill="#3B6B5D" d="M1004.488,117.688c0,0,9.403,10.851,21.989,10.851c5.643,0,9.982-2.314,9.982-7.233
		c0-10.416-38.916-10.271-38.916-34.142c0-14.757,13.31-21.556,28.645-21.556c9.982,0,25.896,3.327,25.896,15.334v7.668h-16.203
		v-3.617c0-3.472-5.208-5.208-9.259-5.208c-6.51,0-10.994,2.315-10.994,6.655c0,11.573,39.205,9.259,39.205,33.853
		c0,13.888-12.297,22.568-28.355,22.568c-20.253,0-30.669-13.165-30.669-13.165L1004.488,117.688z"/>
</g>
<g id="WaterC_mpass_Outlines">
	<path fill="#3B6B5D" d="M45.821,57.65c-0.579-2.46-2.17-3.183-4.629-3.183h-2.749V38.409H50.74c7.233,0,11.14,1.736,12.731,8.391
		l14.033,61.195c1.302,5.786,1.736,10.85,1.736,10.85h0.289c0,0,0.579-4.918,2.17-10.85l18.662-69.297h16.058l17.649,69.297
		c1.592,5.932,2.025,10.85,2.025,10.85h0.29c0,0,0.434-5.063,1.736-10.85L152.297,46.8c1.447-6.654,5.353-8.391,12.586-8.391h12.441
		v16.059h-2.749c-2.604,0-4.051,0.723-4.629,3.183l-21.411,83.474h-21.845l-15.624-58.157c-1.736-6.51-2.604-12.73-2.604-12.73
		h-0.29c0,0-0.868,6.076-2.749,12.73l-16.348,58.157h-21.99L45.821,57.65z"/>
	<path fill="#3B6B5D" d="M219.552,94.83h2.315v-0.579c0-10.561-4.195-14.467-13.599-14.467c-3.328,0-9.838,0.868-9.838,4.919v3.906
		H181.36v-7.813c0-13.743,19.386-15.189,27.053-15.189c24.594,0,31.827,12.875,31.827,29.367v27.487
		c0,2.025,1.157,3.183,3.183,3.183h5.787v15.479h-16.492c-6.799,0-9.403-3.762-9.403-8.102c0-1.881,0.145-3.183,0.145-3.183h-0.289
		c0,0-5.642,13.021-22.279,13.021c-13.165,0-25.172-8.246-25.172-23.003C175.718,96.711,207.545,94.83,219.552,94.83z
		 M205.375,128.538c9.837,0,16.782-10.416,16.782-19.386v-1.736h-3.183c-9.548,0-24.738,1.303-24.738,11.573
		C194.235,123.908,197.852,128.538,205.375,128.538z"/>
	<path fill="#3B6B5D" d="M259.684,81.954h-9.548V67.343h9.982V47.234h17.939v20.108h16.781v14.611h-16.781v29.802
		c0,12.152,9.548,13.889,14.611,13.889c2.025,0,3.328-0.289,3.328-0.289v16.058c0,0-2.315,0.435-5.642,0.435
		c-10.271,0-30.67-3.038-30.67-27.776V81.954z"/>
	<path fill="#3B6B5D" d="M337.602,65.607c21.122,0,32.695,15.479,32.695,35.01c0,2.17-0.434,6.799-0.434,6.799h-50.923
		c1.446,13.021,10.995,19.82,22.134,19.82c11.863,0,20.688-8.247,20.688-8.247l7.667,12.731c0,0-11.284,11.14-29.657,11.14
		c-24.449,0-39.639-17.649-39.639-38.627C300.132,81.521,315.467,65.607,337.602,65.607z M351.49,94.686
		c-0.29-8.825-6.366-14.901-13.888-14.901c-9.403,0-16.058,5.643-18.083,14.901H351.49z"/>
	<path fill="#3B6B5D" d="M385.095,86.15c0-2.171-1.157-3.184-3.183-3.184h-5.787V67.343h16.782c6.51,0,9.837,2.749,9.837,8.97v4.34
		c0,2.749-0.29,4.63-0.29,4.63h0.29c3.327-10.562,12.152-18.952,23.436-18.952c1.591,0,3.328,0.29,3.328,0.29v18.083
		c0,0-1.881-0.289-4.485-0.289c-7.812,0-16.782,4.484-20.109,15.479c-1.013,3.616-1.591,7.667-1.591,12.008v29.223h-18.229V86.15z"
		/>
	<path fill="#3B6B5D" d="M487.417,36.673c13.165,0,38.916,5.498,38.916,23.003v11.429h-17.215v-5.787
		c0-7.522-12.297-10.994-21.266-10.994c-18.373,0-32.84,13.164-32.84,34.575c0,20.109,14.756,36.313,33.418,36.313
		c19.385,0,31.104-13.6,31.104-13.6l9.982,13.6c0,0-14.901,17.649-41.375,17.649c-31.393,0-52.804-23.581-52.804-53.962
		C435.336,59.241,457.616,36.673,487.417,36.673z"/>
	<path fill="#3B6B5D" d="M637.439,86.15c0-2.171-1.157-3.184-3.183-3.184h-5.787V67.343h16.926c6.511,0,9.693,3.038,9.693,8.246
		v2.17c0,1.592-0.145,3.183-0.145,3.183h0.289c3.472-7.233,12.297-15.334,23.87-15.334c11.14,0,18.373,5.208,21.556,15.189h0.289
		c3.906-7.956,13.454-15.189,25.173-15.189c15.335,0,24.159,8.68,24.159,28.065v28.789c0,2.025,1.157,3.183,3.183,3.183h5.643
		v15.479h-17.36c-6.944,0-9.837-2.894-9.837-9.838V97.145c0-8.391-1.592-14.756-10.127-14.756c-9.114,0-15.625,7.667-17.65,16.926
		c-0.867,2.894-1.157,5.932-1.157,9.404v32.405h-18.372V97.145c0-7.956-1.158-14.756-9.982-14.756
		c-9.259,0-15.479,7.667-17.794,17.07c-0.724,2.894-1.158,5.932-1.158,9.26v32.405h-18.228V86.15z"/>
	<path fill="#3B6B5D" d="M770.939,86.15c0-2.171-1.157-3.184-3.183-3.184h-5.787V67.343h16.348c6.799,0,9.259,3.038,9.259,7.089
		c0,1.736,0,2.894,0,2.894h0.289c0,0,6.221-11.718,23.437-11.718c19.964,0,32.84,15.769,32.84,38.626
		c0,23.437-14.467,38.627-33.853,38.627c-14.611,0-21.122-9.693-21.122-9.693h-0.289c0,0,0.289,2.604,0.289,6.365v30.525h-18.228
		V86.15z M806.961,127.381c10.127,0,18.662-8.246,18.662-22.858c0-14.032-7.522-23.146-18.373-23.146
		c-9.548,0-18.518,6.944-18.518,23.292C788.733,116.097,794.809,127.381,806.961,127.381z"/>
	<path fill="#3B6B5D" d="M894.976,94.83h2.314v-0.579c0-10.561-4.195-14.467-13.599-14.467c-3.327,0-9.837,0.868-9.837,4.919v3.906
		h-17.071v-7.813c0-13.743,19.386-15.189,27.053-15.189c24.594,0,31.827,12.875,31.827,29.367v27.487
		c0,2.025,1.157,3.183,3.183,3.183h5.787v15.479h-16.492c-6.8,0-9.403-3.762-9.403-8.102c0-1.881,0.145-3.183,0.145-3.183h-0.289
		c0,0-5.643,13.021-22.279,13.021c-13.165,0-25.172-8.246-25.172-23.003C851.142,96.711,882.969,94.83,894.976,94.83z
		 M880.798,128.538c9.838,0,16.782-10.416,16.782-19.386v-1.736h-3.183c-9.549,0-24.738,1.303-24.738,11.573
		C869.66,123.908,873.276,128.538,880.798,128.538z"/>
	<path fill="#3B6B5D" d="M938.869,117.688c0,0,9.403,10.851,21.989,10.851c5.643,0,9.982-2.314,9.982-7.233
		c0-10.416-38.916-10.271-38.916-34.142c0-14.757,13.31-21.556,28.645-21.556c9.982,0,25.896,3.327,25.896,15.334v7.668h-16.203
		v-3.617c0-3.472-5.208-5.208-9.259-5.208c-6.51,0-10.994,2.315-10.994,6.655c0,11.573,39.205,9.259,39.205,33.853
		c0,13.888-12.297,22.568-28.355,22.568c-20.253,0-30.669-13.165-30.669-13.165L938.869,117.688z"/>
	<path fill="#3B6B5D" d="M1004.488,117.688c0,0,9.403,10.851,21.989,10.851c5.643,0,9.982-2.314,9.982-7.233
		c0-10.416-38.916-10.271-38.916-34.142c0-14.757,13.31-21.556,28.645-21.556c9.982,0,25.896,3.327,25.896,15.334v7.668h-16.203
		v-3.617c0-3.472-5.208-5.208-9.259-5.208c-6.51,0-10.994,2.315-10.994,6.655c0,11.573,39.205,9.259,39.205,33.853
		c0,13.888-12.297,22.568-28.355,22.568c-20.253,0-30.669-13.165-30.669-13.165L1004.488,117.688z"/>
</g>
<g id="Compass">
	<polygon fill="#E47A26" points="598.34,91.404 603.394,84.855 608.726,85.492 606.548,90.402 	"/>
	<polygon fill="#E47A26" points="589.23,124.086 595.776,129.145 595.142,134.474 590.232,132.297 	"/>
	<polygon fill="#E47A26" points="556.546,114.977 551.493,121.525 546.157,120.891 548.335,115.979 	"/>
	<polygon fill="#E47A26" points="565.655,82.294 559.109,77.24 559.744,71.905 564.654,74.082 	"/>
	<polygon fill="#E47A26" points="583.041,62.51 584.818,76.328 593.405,65.356 590.15,56.912 	"/>
	<polygon fill="#E47A26" points="604.304,110.566 615.277,119.152 623.72,115.898 618.123,108.789 	"/>
	<polygon fill="#E47A26" points="561.48,141.024 564.735,149.469 571.844,143.869 570.066,130.052 	"/>
	<polygon fill="#E47A26" points="531.165,90.482 536.762,97.592 550.581,95.813 539.607,87.229 	"/>
	<g>
		<path fill="#3B6B5D" d="M539.284,86.392l0.475-0.183l0.401,0.313l7.8,6.102c4.424-12.339,16.211-20.771,29.46-20.771
			c2.005,0,4.012,0.203,5.993,0.591l-1.263-9.819l-0.065-0.505l0.4-0.314l5.034-3.963c-0.386-0.352-0.733-0.748-0.999-1.215
			c-0.661-1.162-0.83-2.513-0.476-3.803c0.595-2.167,2.577-3.68,4.82-3.68c0.446,0,0.894,0.061,1.332,0.181
			c1.289,0.354,2.363,1.188,3.024,2.35c0.661,1.162,0.83,2.512,0.476,3.802c-0.5,1.819-1.981,3.165-3.768,3.555l2.313,6.002
			l0.183,0.476l-0.313,0.401l-6.102,7.796c7.055,2.517,12.916,7.411,16.66,13.988c3.743,6.577,4.958,14.116,3.519,21.468l9.82-1.264
			l0.504-0.064l0.315,0.399l2.231,2.834c1.864-10.219,0.108-20.667-5.091-29.803c-4.288-7.535-10.542-13.508-18.064-17.401
			c2.158-1.565,3.802-3.834,4.543-6.533c0.849-3.093,0.444-6.33-1.142-9.117c-1.586-2.787-4.163-4.789-7.255-5.638
			c-1.042-0.286-2.113-0.431-3.186-0.431c-5.386,0-10.144,3.63-11.57,8.827c-0.735,2.674-0.526,5.457,0.568,7.964
			c-0.813-0.046-1.628-0.083-2.442-0.083c-18.555,0-35.09,11.677-41.501,28.835L539.284,86.392z"/>
		<path fill="#3B6B5D" d="M615.6,119.99l-0.475,0.183l-0.401-0.313l-7.799-6.103c-4.424,12.339-16.211,20.771-29.459,20.771
			c-2.005,0-4.012-0.204-5.994-0.591l1.264,9.817l0.065,0.505l-0.399,0.314l-2.82,2.221c2.607,0.473,5.245,0.733,7.885,0.733
			c18.555,0,35.089-11.677,41.5-28.835L615.6,119.99z"/>
		<path fill="#3B6B5D" d="M560.643,141.348l-0.183-0.476l0.313-0.4l6.102-7.798c-7.055-2.516-12.916-7.41-16.659-13.987
			s-4.958-14.116-3.518-21.468l-9.82,1.264l-0.505,0.064l-0.315-0.399l-2.231-2.834c-1.864,10.22-0.108,20.667,5.091,29.803
			c5.199,9.136,13.285,15.981,23.023,19.598L560.643,141.348z"/>
	</g>
	<g id="Water_Needle_1_">
		<polygon fill="#FFFFFF" points="583.019,91.507 568.451,100.722 565.242,108.262 569.135,116 576.29,116.013 577.299,105.229 		
			"/>
		<path fill="#188BFF" d="M586.058,86.871c-8.183,6.803-18.388,10.792-21.268,16.089c-2.881,5.299-0.94,11.965,4.357,14.845
			c0.036,0.021,0.108,0.059,0.145,0.078c5.298,2.88,11.947,0.885,14.827-4.414S584.798,97.438,586.058,86.871z M570.995,114.354
			c-1.703,0.403-3.593-3.016-2.975-7.534c0.529-3.85,6.01-8.173,12.067-11.659c-5.15,4.528-8.906,9.7-7.116,13.074
			C574.348,110.829,572.696,113.951,570.995,114.354z"/>
	</g>
</g>
<g>
</g>
<g>
</g>
<g>
</g>
<g>
</g>
<g>
</g>
<g>
</g>
<g>
</g>
<g>
</g>
<g>
</g>
<g>
</g>
<g>
</g>
<g>
</g>
<g>
</g>
<g>
</g>
<g>
</g>
<g>
</g>
</svg>
